PathFileType	4	(X/Y/Z)	SUBJ32_3_walk_RCNL2025.trc
DataRate	CameraRate	NumFrames	NumMarkers	Units	OrigDataRate	OrigDataStartFrame	OrigNumFrames
100	100	14	25	mm	100	197	393
Frame#	Time	R_Shoulder			L_Shoulder			C7			J_Notch			R_Elbow			L_Elbow			R_Wrist			L_Wrist			R_Asis			L_Asis			Sacral			Thoracic			Sternum			R_Thigh_Lateral			R_Knee_Lateral			R_Shank_Lateral			R_Ankle_Lateral			R_Heel			R_Toe			L_Thigh_Lateral			L_Knee_Lateral			L_Shank_Lateral			L_Ankle_Lateral			L_Heel			L_Toe		
		X1	Y1	Z1	X2	Y2	Z2	X3	Y3	Z3	X4	Y4	Z4	X5	Y5	Z5	X6	Y6	Z6	X7	Y7	Z7	X8	Y8	Z8	X9	Y9	Z9	X10	Y10	Z10	X11	Y11	Z11	X12	Y12	Z12	X13	Y13	Z13	X14	Y14	Z14	X15	Y15	Z15	X16	Y16	Z16	X17	Y17	Z17	X18	Y18	Z18	X19	Y19	Z19	X20	Y20	Z20	X21	Y21	Z21	X22	Y22	Z22	X23	Y23	Z23	X24	Y24	Z24	X25	Y25	Z25
197	1.96000000	452.809784	1357.847534	28.839664	433.155762	1340.826416	-340.079926	427.242737	1432.994507	-148.308441	539.784607	1318.956421	-154.223602	383.122864	1032.609131	146.278702	336.301025	1026.810791	-413.938660	467.156555	797.315948	173.560173	379.926514	770.323334	-431.002106	503.907654	890.481262	-23.033907	517.104309	890.309814	-273.662354	310.663940	937.353027	-155.243073	312.345001	1197.670410	-145.482880	600.984436	1096.894165	-144.845947	369.854523	537.890076	70.153252	362.106537	448.527313	34.483227	251.739487	339.549255	100.274498	89.507004	188.969254	-15.186176	58.423897	228.866364	-67.891602	134.811157	66.638542	-58.521996	495.308502	548.985291	-365.816589	521.811829	461.076416	-319.034058	529.835144	236.071838	-335.096405	529.441833	53.733658	-241.136490	481.171875	44.596394	-191.550507	666.758118	38.293789	-216.299316
198	1.97000000	463.751770	1358.849976	27.368328	444.422974	1342.157715	-341.593903	438.326324	1434.325562	-149.852142	550.718079	1320.108643	-155.764542	392.010559	1034.015747	144.487534	349.226227	1027.861694	-416.665771	471.683960	797.193726	172.213257	396.205811	771.998993	-433.815979	515.069031	891.913391	-24.492123	527.252502	891.015869	-275.249390	321.300232	938.646118	-156.347763	323.259705	1199.019897	-147.160492	611.658569	1097.954834	-146.793121	389.042084	537.648865	70.043419	383.304871	448.800415	34.518749	273.116119	340.690460	100.371307	107.986694	194.019669	-15.427968	77.051430	233.795502	-68.578369	151.748718	70.589706	-56.797096	501.371582	549.233521	-366.789795	526.622864	460.932892	-319.900604	531.856384	235.801132	-335.406525	529.731812	53.750153	-240.966827	481.387726	44.824272	-191.478058	667.042114	38.177021	-216.175552
199	1.98000000	474.426819	1359.730835	26.027895	455.567322	1343.449463	-343.025970	449.298676	1435.618164	-151.288971	561.533264	1321.262451	-157.208160	400.776245	1035.274658	142.819534	362.105652	1028.893677	-419.454437	476.342239	797.121704	170.877731	412.708847	773.734772	-436.636169	526.109070	893.337524	-25.759436	537.162781	891.656189	-276.714600	331.788910	939.934631	-157.261963	334.057465	1200.357422	-148.802109	622.226440	1098.979004	-148.694611	408.306519	537.641357	69.701385	404.515869	449.371185	34.228050	294.791046	341.752045	100.152260	127.452553	198.059311	-15.810184	96.146835	237.231430	-69.441963	171.287445	74.358849	-54.998547	507.228119	549.544495	-367.755402	531.095093	460.823639	-320.710510	533.692810	235.597656	-335.736053	529.952881	53.773296	-240.841934	481.558014	45.082050	-191.459747	667.245239	38.087818	-216.124115
200	1.99000000	484.871399	1360.534546	24.813042	466.584625	1344.733887	-344.367645	460.160278	1436.882446	-152.611069	572.237671	1322.415161	-158.548447	409.405731	1036.432495	141.249664	374.964081	1029.935059	-422.283875	481.129227	797.132721	169.544273	429.410660	775.566803	-439.458817	537.056091	894.772095	-26.875603	546.825134	892.272705	-278.092224	342.145050	941.213745	-157.989380	344.733582	1201.685059	-150.385727	632.680298	1099.982056	-150.522964	427.619141	537.905212	69.152000	425.652740	450.259094	33.623268	316.571320	342.871643	99.605438	147.896713	200.941086	-16.304487	115.732346	239.122162	-70.393967	193.258972	77.728172	-53.308521	512.790771	549.886658	-368.687408	535.211548	460.735229	-321.469635	535.322266	235.448151	-336.062103	530.112976	53.802002	-240.746933	481.690704	45.368076	-191.477676	667.382568	38.026024	-216.139175
201	2.00000000	495.126038	1361.300293	23.711868	477.476837	1346.037476	-345.613403	470.909393	1438.124268	-153.813690	582.834534	1323.560791	-159.779861	417.881470	1037.533691	139.749954	387.826904	1031.010864	-425.134247	486.042282	797.257538	168.208748	446.278992	777.528687	-442.274338	547.933228	896.231201	-27.897652	556.255005	892.895935	-279.421661	352.386566	942.475403	-158.552322	355.288055	1202.998047	-151.894943	643.011841	1100.975464	-152.252579	446.950928	538.449158	68.432434	446.640350	451.440674	32.729046	338.327667	344.098999	98.757088	169.276520	202.555664	-16.883385	135.853455	239.464493	-71.355598	217.413681	80.529366	-51.871174	518.003174	550.232422	-369.555054	538.975342	460.656433	-322.170807	536.717896	235.342499	-336.356140	530.222717	53.835480	-240.661469	481.792755	45.670647	-191.498276	667.472290	37.992908	-216.212631
202	2.01000000	505.228973	1362.057861	22.710588	488.250641	1347.376465	-346.761169	481.542816	1439.344604	-154.897400	593.323425	1324.689453	-160.898758	426.186249	1038.614502	138.291992	400.716217	1032.141357	-427.988007	491.080460	797.518280	166.873665	463.278122	779.646057	-445.069412	558.757629	897.722717	-28.891062	565.489868	893.546875	-280.743835	362.529846	943.709778	-158.979767	365.723480	1204.286499	-153.317322	653.214661	1101.967163	-153.865326	466.260590	539.256958	67.577469	467.420135	452.862610	31.575737	360.006958	345.385956	97.666985	191.509537	202.837204	-17.527382	156.565430	238.290466	-72.277374	243.468369	82.658623	-50.771851	522.856323	550.562683	-370.331390	542.416687	460.583191	-322.800293	537.875427	235.276947	-336.594299	530.293335	53.873257	-240.564377	481.870300	45.972122	-191.481659	667.531372	37.990276	-216.336548
203	2.02000000	515.212708	1362.825317	21.797375	498.915649	1348.753906	-347.812469	492.058899	1440.538940	-155.868866	603.702148	1325.788696	-161.905563	434.307190	1039.699341	136.849670	413.647552	1033.338379	-430.830994	496.246750	797.924744	165.547371	480.372910	781.930603	-447.829071	569.534668	899.243652	-29.919655	574.574280	894.235901	-282.091400	372.587372	944.906311	-159.298508	376.042236	1205.537476	-154.643417	663.286804	1102.960571	-155.354507	485.496338	540.296631	66.613663	487.946930	454.460327	30.197317	381.623077	346.604492	96.408577	214.503098	201.766891	-18.227091	177.928574	235.655029	-73.144760	271.142609	84.073769	-50.037418	527.389465	550.867798	-370.998413	545.587891	460.517426	-323.342773	538.823181	235.252823	-336.762787	530.334656	53.913517	-240.436874	481.930237	46.259281	-191.397644	667.572937	38.018089	-216.503082
204	2.03000000	525.104370	1363.607788	20.962721	509.483887	1350.160400	-348.771118	502.459808	1441.698364	-156.740067	613.970581	1326.845093	-162.806534	442.240875	1040.800171	135.402969	426.627869	1034.604126	-433.652008	501.548035	798.473541	164.241882	497.531494	784.377808	-450.539658	580.254272	900.774414	-31.035683	583.545593	894.960938	-283.482056	382.568634	946.053406	-159.529663	386.246918	1206.736328	-155.867126	673.231445	1103.952393	-156.725952	504.603607	541.527588	65.559517	508.182739	456.172485	28.630024	403.228851	347.586884	95.046036	238.197464	199.379135	-18.981543	200.005951	231.627731	-73.971329	300.178558	84.782135	-49.647724	531.678772	551.146790	-371.549072	548.555115	460.462738	-323.783875	539.615906	235.272766	-336.859161	530.354492	53.952168	-240.264709	481.980072	46.528374	-191.234497	667.605713	38.070915	-216.700516
205	2.04000000	534.925476	1364.398560	20.198013	519.969543	1351.575928	-349.641815	512.750916	1442.809692	-157.524963	624.132202	1327.844971	-163.613235	449.996826	1041.916748	133.942810	439.654083	1035.928833	-436.441956	506.991608	799.147552	162.970085	514.726486	786.970428	-453.193085	590.896545	902.278809	-32.270603	592.429688	895.706848	-284.918884	392.481750	947.138000	-159.687637	396.343109	1207.866821	-156.985748	683.057007	1104.932007	-157.996002	523.529724	542.903625	64.426094	528.097656	457.944672	26.907217	424.886383	348.176819	93.620552	262.587402	195.761520	-19.795830	222.859436	226.286545	-74.786751	330.346466	84.825119	-49.553001	535.820374	551.404175	-371.987427	551.390503	460.421906	-324.112946	540.322937	235.336472	-336.889893	530.359192	53.984097	-240.039337	482.026428	46.781788	-190.995148	667.634521	38.136139	-216.910248
206	2.05000000	544.689148	1365.181030	19.495708	530.388123	1352.973267	-350.429718	522.938721	1443.855103	-158.235550	634.193420	1328.773682	-164.338867	457.598419	1043.036499	132.472977	452.713745	1037.290894	-439.192993	512.582443	799.916565	161.743500	531.935287	789.682037	-455.790573	601.445923	903.711487	-33.629211	601.244141	896.447815	-286.394073	402.334198	948.144592	-159.779968	406.340973	1208.912231	-157.999374	692.777710	1105.882568	-159.187790	542.225403	544.374451	63.217457	547.674438	459.727203	25.056017	446.648041	348.270966	92.148712	287.712067	191.043976	-20.679747	246.545349	219.712280	-75.626266	361.441528	84.262573	-49.692841	539.911255	551.645264	-372.326263	554.164673	460.395844	-324.327148	541.016418	235.438675	-336.865967	530.353882	54.006535	-239.759384	482.074371	47.023102	-190.688721	667.661682	38.197769	-217.110596
207	2.06000000	554.398682	1365.931641	18.850187	540.755127	1354.320557	-351.140656	533.030579	1444.813843	-158.880508	644.162354	1329.616211	-164.994431	465.080261	1044.135742	131.007736	465.788269	1038.660278	-441.898010	518.321915	800.738892	160.571106	549.140564	792.478577	-458.340820	611.903687	905.028442	-35.089611	610.002502	897.150818	-287.891998	412.133240	949.055542	-159.809265	416.253387	1209.855103	-158.910645	702.412659	1106.782715	-160.326889	560.646545	545.890137	61.933254	566.907043	461.475372	23.099281	468.546021	347.831696	90.627975	313.629822	185.382095	-21.646231	271.110718	211.989334	-76.523392	393.284424	83.161827	-50.007957	544.032471	551.872742	-372.582184	556.939331	460.382721	-324.433258	541.758972	235.571274	-336.796417	530.345520	54.024105	-239.432678	482.127350	47.254620	-190.324799	667.687744	38.243057	-217.285156
208	2.07000000	564.051575	1366.621338	18.257124	551.083313	1355.583984	-351.780914	543.035767	1445.662964	-159.466431	654.048401	1330.356323	-165.588333	472.484161	1045.183594	129.567596	478.856445	1040.002686	-444.551270	524.210358	801.564545	159.459160	566.329285	795.320679	-460.853333	622.293396	906.196594	-36.609165	618.716736	897.779297	-289.392731	421.885620	949.852234	-159.776917	426.093262	1210.677979	-159.724930	711.983032	1107.606079	-161.437607	578.756287	547.407166	60.573521	585.794250	463.150177	21.058279	490.584442	346.872375	89.044685	340.391815	178.938400	-22.708639	296.593536	203.220322	-77.511375	425.730621	81.595337	-50.441299	548.240906	552.085876	-372.770081	559.762878	460.376892	-324.445801	542.594971	235.725937	-336.683746	530.344482	54.051823	-239.077194	482.187927	47.477409	-189.911865	667.711792	38.265385	-217.426132
209	2.08000000	573.645447	1367.218506	17.713055	561.382263	1356.731934	-352.356140	552.965515	1446.380005	-159.998795	663.862915	1330.976929	-166.127121	479.854187	1046.145996	128.174683	491.897827	1041.284668	-447.149597	530.253510	802.339508	158.411171	583.489899	798.168121	-463.331161	632.652710	907.197388	-38.136478	627.399048	898.296509	-290.875305	431.597198	950.517212	-159.686676	435.872375	1211.363159	-160.449097	721.507874	1108.322510	-162.540512	596.525879	548.891785	59.142910	604.331299	464.717407	18.953066	512.736328	345.433502	87.383171	368.019592	171.862411	-23.879112	323.025421	193.541046	-78.628456	458.679382	79.643265	-50.937202	552.570068	552.279175	-372.901001	562.670532	460.368927	-324.383057	543.549194	235.892990	-336.525635	530.362671	54.109135	-238.715225	482.259583	47.693035	-189.458755	667.732056	38.262310	-217.531113
210	2.09000000	583.181824	1367.691040	17.216045	571.658569	1357.736816	-352.870789	562.832825	1446.943726	-160.481522	673.619080	1331.461670	-166.615036	487.232208	1046.988892	126.848450	504.895844	1042.475830	-449.692047	536.467148	803.011780	157.428467	600.608429	800.984100	-465.769547	643.012268	908.021545	-39.625729	636.061646	898.668396	-292.320038	441.272827	951.033936	-159.546356	445.601898	1211.895142	-161.089462	731.001831	1108.901245	-163.650269	613.932373	550.317749	57.651550	622.503540	466.146240	16.801233	534.949524	343.566589	85.633080	396.492493	164.278000	-25.168552	350.428040	183.116714	-79.911018	492.071564	77.396233	-51.447853	557.037598	552.441406	-372.984100	565.688538	460.346832	-324.263641	544.630554	236.059692	-336.320465	530.407471	54.208004	-238.363251	482.348328	47.905769	-188.977310	667.746216	38.232933	-217.599335
